# xmcd
#
# Track frame offsets: 
#        150
#        15665
#        28045
#        41945
#        57570
#        71140
#        84970
#        98320
#        111290
#        125452
#
# Disc length: 1825 seconds
#
# Revision: 0
# Processed by: cddbd v1.5.2PL0 Copyright (c) Steve Scherf et al.
# Submitted via: ExactAudioCopyFreeDBPlugin 1.0
#
DISCID=81071f0a
DTITLE=Leite de Coco - Meu Sertão, Meu Seridó
DYEAR=1900
DGENRE=Forró
TTITLE0=Meu Sertão, Meu Seridó
TTITLE1=A Primeira Vez
TTITLE2=Emoção de Vaqueiro
TTITLE3=Sem Você
TTITLE4=Me Ame De Verdade
TTITLE5=Meu Pescador
TTITLE6=Brinquedo de Amor
TTITLE7=Ritinha
TTITLE8=É Só Verdade
TTITLE9=Amor Eu e Você
EXTD=
EXTT0=
EXTT1=
EXTT2=
EXTT3=
EXTT4=
EXTT5=
EXTT6=
EXTT7=
EXTT8=
EXTT9=
PLAYORDER=
